Coordinates
version=1
nRows=32
nColumns=22
inDegrees=yes

Units are S.I. units (second, meters, Newtons, ...)
If the header above contains a line with 'inDegrees', this indicates whether rotational values are in degrees (yes) or radians (no).

endheader
time	pelvis_tilt	pelvis_list	pelvis_rotation	pelvis_tx	pelvis_ty	pelvis_tz	hip_flexion_r	hip_adduction_r	hip_rotation_r	knee_angle_r	ankle_angle_r	subtalar_angle_r	hip_flexion_l	hip_adduction_l	hip_rotation_l	knee_angle_l	ankle_angle_l	subtalar_angle_l	lumbar_extension	lumbar_bending	lumbar_rotation
      2.80000000	      8.55393862	    -13.33448554	     37.76683981	      0.25665166	      0.87698336	     -0.27248447	      6.16156968	     -5.67950150	      5.75487589	    -53.95900439	     -5.03572551	      1.43372089	     27.03952443	     -5.72423202	      4.86591479	    -33.75285560	      8.13021846	     -7.16340644	     -3.20617235	      0.93362438	     31.91732333
      2.81000000	      9.05449891	    -13.22070858	     41.01548388	      0.26067501	      0.87777325	     -0.27988027	      6.85678009	     -6.20661097	      6.04281958	    -54.31635562	     -4.72250570	      0.52097785	     26.46713854	     -4.97495394	      6.11000486	    -33.33209826	      8.21781503	     -6.86031083	     -3.19820660	      1.18399947	     31.43539873
      2.82000000	      9.57152616	    -13.15270321	     44.24343847	      0.26431543	      0.87853037	     -0.28678920	      7.53670675	     -6.54919160	      6.61063608	    -54.67036753	     -4.43822812	      0.38068321	     25.96561006	     -4.36626418	      7.16063981	    -32.94439083	      8.24152005	     -6.74344526	     -3.15636067	      1.48058070	     31.00514870
      2.83000000	     10.19485278	    -13.10688817	     47.47035249	      0.26766658	      0.87941401	     -0.29327630	      8.10688685	     -6.66951840	      7.38001166	    -54.99619256	     -4.20430520	      0.52032873	     25.44130849	     -3.94489092	      8.01066264	    -32.56636182	      8.28593224	     -6.63517206	     -3.15133114	      1.87405840	     30.62461752
      2.84000000	     10.86319960	    -13.06426380	     50.69330820	      0.27072932	      0.88032995	     -0.29938546	      8.61783079	     -6.64102877	      8.31869739	    -55.33019647	     -3.97468845	      1.15993723	     24.95476396	     -3.63733509	      8.66192947	    -32.24253934	      8.33225451	     -6.64424580	     -3.13356040	      2.30801800	     30.27288087
      2.85000000	     11.56036114	    -12.99982478	     53.90442654	      0.27351850	      0.88127352	     -0.30513596	      9.06939150	     -6.50409132	      9.39946602	    -55.68846849	     -3.70198725	      2.17003674	     24.50968116	     -3.41243011	      9.11789507	    -31.99461276	      8.35959962	     -6.77912544	     -3.10847230	      2.75565746	     29.94713631
      2.86000000	     12.30445782	    -12.90968012	     57.13693784	      0.27602611	      0.88227200	     -0.31061485	      9.44967458	     -6.26834024	     10.51475602	    -56.06809019	     -3.48723149	      3.14418161	     24.07401715	     -3.26803593	      9.45817646	    -31.77936638	      8.39182192	     -6.97714660	     -3.08112357	      3.23873319	     29.59212183
      2.87000000	     13.07855655	    -12.77370237	     60.38817794	      0.27824967	      0.88329717	     -0.31585123	      9.75713518	     -5.96751857	     11.64375831	    -56.47774870	     -3.25888324	      4.10768071	     23.65382493	     -3.18069837	      9.68530341	    -31.61389821	      8.40494415	     -7.20801412	     -3.05395252	      3.73774405	     29.19469837
      2.88000000	     13.87763951	    -12.58295774	     63.66806034	      0.28014576	      0.88433374	     -0.32088127	      9.99347794	     -5.62546816	     12.73737906	    -56.91494646	     -3.04660617	      4.94666336	     23.24420818	     -3.13507579	      9.83274462	    -31.48949165	      8.40274751	     -7.45193898	     -3.02909686	      4.25486672	     28.73391011
      2.89000000	     14.68009486	    -12.33007080	     67.00355341	      0.28163662	      0.88531666	     -0.32572799	     10.16831943	     -5.29422577	     13.70840775	    -57.37993902	     -2.84162738	      5.43861985	     22.85278790	     -3.09497457	      9.92907301	    -31.40204679	      8.40840790	     -7.65689021	     -3.00137219	      4.77871078	     28.15360671
      2.90000000	     15.47273433	    -12.01195253	     70.33145732	      0.28279092	      0.88626594	     -0.33032046	     10.29839056	     -4.96444714	     14.64409234	    -57.87555949	     -2.59113842	      6.08293382	     22.47816285	     -3.07635356	      9.87937337	    -31.35881475	      8.33023006	     -7.95443915	     -2.97701121	      5.29605115	     27.56216115
      2.91000000	     16.21016996	    -11.64981721	     73.70597260	      0.28351529	      0.88706271	     -0.33471566	     10.41564448	     -4.71916810	     15.39657910	    -58.39372601	     -2.31890440	      6.26231225	     22.11665827	     -3.01091856	      9.78395213	    -31.28878519	      8.27167169	     -8.14460425	     -2.90694113	      5.78299354	     26.83326794
      2.92000000	     16.94309884	    -11.24184224	     77.09159440	      0.28387607	      0.88775345	     -0.33883319	     10.51597079	     -4.50141961	     15.99192384	    -58.92171177	     -2.08728175	      6.40050769	     21.77141040	     -2.98372343	      9.48896291	    -31.24052119	      8.18845547	     -8.42460850	     -2.82715327	      6.29068655	     26.03499469
      2.93000000	     17.60620641	    -10.80939173	     80.47848850	      0.28386757	      0.88825462	     -0.34263345	     10.63714692	     -4.37310701	     16.44460592	    -59.46112214	     -1.80920874	      6.36906034	     21.43803029	     -2.91696923	      9.07737220	    -31.15669666	      8.09368007	     -8.66856222	     -2.70131221	      6.75578124	     25.15723111
      2.94000000	     18.24351774	    -10.35924016	     83.86786610	      0.28352421	      0.88855680	     -0.34613717	     10.78126398	     -4.30168253	     16.70880183	    -59.99479091	     -1.59071464	      6.20072295	     21.11299827	     -2.86664454	      8.49599163	    -31.05533866	      8.02771261	     -8.96917700	     -2.52898989	      7.22879018	     24.21521878
      2.95000000	     18.85055504	     -9.90143712	     87.23275746	      0.28290842	      0.88863483	     -0.34927019	     10.97797261	     -4.28260994	     16.81099665	    -60.53131786	     -1.44414044	      5.75991721	     20.80627802	     -2.83513813	      7.74490257	    -30.94352215	      8.00082542	     -9.42032761	     -2.31315583	      7.69887541	     23.25139160
      2.96000000	     19.39327211	     -9.43122961	     90.56614308	      0.28204400	      0.88850002	     -0.35206972	     11.20008914	     -4.34006786	     16.80499267	    -61.04989333	     -1.23329595	      5.24853822	     20.46402175	     -2.77857729	      6.91046570	    -30.74538408	      7.99034181	     -9.78466903	     -2.05490323	      8.12242084	     22.24919191
      2.97000000	     19.90930641	     -8.94494537	     93.86506360	      0.28095495	      0.88816211	     -0.35450011	     11.45389340	     -4.42946758	     16.69446237	    -61.54080196	     -1.11261156	      4.75682955	     20.09741070	     -2.73698881	      6.02435749	    -30.49730244	      8.05487402	    -10.07917481	     -1.77362593	      8.54177519	     21.23714106
      2.98000000	     20.38198757	     -8.44510344	     97.12162138	      0.27971206	      0.88763782	     -0.35655097	     11.73644080	     -4.54308956	     16.53042031	    -62.00632772	     -0.97870536	      4.25215252	     19.69680541	     -2.69514470	      5.14845915	    -30.17501517	      8.16672733	    -10.32007259	     -1.47420394	      8.92836391	     20.22278663
      2.99000000	     20.80935189	     -7.93448941	    100.32995732	      0.27836013	      0.88694442	     -0.35822219	     12.05057606	     -4.67219505	     16.33517434	    -62.44022476	     -0.80309309	      3.72332315	     19.26819621	     -2.65260700	      4.33048524	    -29.78355826	      8.33365903	    -10.49504931	     -1.16312644	      9.27528835	     19.23563501
      3.00000000	     21.18555841	     -7.41599409	    103.49627256	      0.27694656	      0.88611262	     -0.35948536	     12.40285672	     -4.80148774	     16.14345739	    -62.84973710	     -0.60094299	      3.22471564	     18.81761289	     -2.59846665	      3.65191785	    -29.31904874	      8.55422280	    -10.56705245	     -0.85332690	      9.57126755	     18.25143000
      3.01000000	     21.48692254	     -6.89875747	    106.62477913	      0.27547175	      0.88516909	     -0.36036736	     12.78793419	     -4.96138698	     15.96338821	    -63.22457170	     -0.30875557	      2.94071437	     18.33107161	     -2.50035411	      3.18331329	    -28.74615758	      8.82486598	    -10.53238743	     -0.54699643	      9.78735124	     17.29417069
      3.02000000	     21.75501376	     -6.38869398	    109.73029421	      0.27405943	      0.88413177	     -0.36080209	     13.24672764	     -5.09147904	     15.77898593	    -63.58534025	     -0.05310160	      2.39023211	     17.89620467	     -2.41098935	      2.91041286	    -28.17723437	      9.13138576	    -10.32147016	     -0.25339546	      9.95783634	     16.32706770
      3.03000000	     21.93999501	     -5.89330353	    112.80102343	      0.27265754	      0.88305558	     -0.36090597	     13.74249640	     -5.25546937	     15.62353812	    -63.90265522	      0.29619150	      2.02670792	     17.43518536	     -2.26449067	      2.91861458	    -27.50320878	      9.48624299	     -9.96942523	      0.02622711	     10.03185491	     15.39098493
      3.04000000	     22.06602470	     -5.41023334	    115.84731212	      0.27130831	      0.88198376	     -0.36067728	     14.28272024	     -5.41959897	     15.49397081	    -64.17213658	      0.64945344	      1.78090422	     16.97851203	     -2.08745835	      3.21260625	    -26.77132931	      9.83072703	     -9.51717724	      0.27974086	     10.03463620	     14.46289417
      3.05000000	     22.13087211	     -4.92860307	    118.86472366	      0.27003403	      0.88096120	     -0.36016115	     14.84893599	     -5.58024565	     15.38903072	    -64.38318792	      1.01388835	      1.61898513	     16.52567817	     -1.88744395	      3.76806998	    -26.01737042	     10.16012200	     -8.99466609	      0.48618215	      9.97258293	     13.53650078
      3.06000000	     22.13986484	     -4.44100067	    121.84049323	      0.26885294	      0.88002451	     -0.35942245	     15.43093674	     -5.72034297	     15.32287998	    -64.52457148	      1.38950363	      1.52943717	     16.07012914	     -1.67822116	      4.56440302	    -25.26123485	     10.47914553	     -8.42574398	      0.63500854	      9.86083239	     12.62675052
      3.07000000	     22.09176039	     -3.93764540	    124.75693182	      0.26777261	      0.87920363	     -0.35851618	     16.01870976	     -5.82955239	     15.30837425	    -64.58843349	      1.77760132	      1.50835942	     15.60377955	     -1.46932688	      5.56469882	    -24.53299368	     10.77507136	     -7.84768814	      0.70925394	      9.71313179	     11.74549863
      3.08000000	     21.98947126	     -3.41588141	    127.59610499	      0.26679863	      0.87854240	     -0.35751112	     16.60870381	     -5.89547480	     15.35166892	    -64.55892233	      2.16001121	      1.54690488	     15.11708276	     -1.27127642	      6.71533574	    -23.83677494	     11.02431895	     -7.32673908	      0.70768658	      9.54340608	     10.90796400
      3.09000000	     21.82685770	     -2.86870946	    130.33282492	      0.26595329	      0.87806507	     -0.35645611	     17.19709771	     -5.90584243	     15.47702011	    -64.43789014	      2.54945244	      1.62446984	     14.60496943	     -1.09349205	      7.94642073	    -23.20577829	     11.23290632	     -6.83691815	      0.61254698	      9.36212872	     10.13401701
      3.10000000	     21.61117722	     -2.32594788	    132.95146266	      0.26524619	      0.87774858	     -0.35540473	     17.81483815	     -5.87030531	     15.69080023	    -64.21996997	      2.95084920	      1.69383738	     14.09438725	     -0.92452193	      9.18693634	    -22.65311170	     11.38989980	     -6.55361568	      0.45634858	      9.16118432	      9.41975460
      3.11000000	     21.31217319	     -1.70633378	    135.39924047	      0.26464983	      0.87777890	     -0.35451054	     18.36365418	     -5.72619649	     16.03137321	    -63.86734022	      3.30836725	      1.82050312	     13.44587058	     -0.82989232	     10.37161703	    -22.10429259	     11.51942342	     -6.04110337	      0.13874126	      8.98519013	      8.83559153
